<?xml version="1.0" standalone="no"?>
<!DOCTYPE svg PUBLIC "-//W3C//DTD SVG 20010904//EN"
 "http://www.w3.org/TR/2001/REC-SVG-20010904/DTD/svg10.dtd">
<svg version="1.0" xmlns="http://www.w3.org/2000/svg"
 width="416.000000pt" height="416.000000pt" viewBox="0 0 416.000000 416.000000"
 preserveAspectRatio="xMidYMid meet">

<g transform="translate(0.000000,416.000000) scale(0.100000,-0.100000)"
fill="#000000" stroke="none">
<path d="M2070 3575 l0 -75 70 0 70 0 0 75 0 75 -70 0 -70 0 0 -75z"/>
<path d="M1170 2975 l0 -75 69 0 69 0 4 75 3 75 -72 0 -73 0 0 -75z"/>
<path d="M2210 2675 l0 -75 -73 0 -74 0 0 -72 1 -73 -72 -3 -71 -3 -3 -72 -3
-72 -72 -3 -72 -3 -3 -72 -3 -72 -147 -3 -148 -3 0 -74 0 -75 -75 0 -74 0 -3
-72 -3 -73 -72 -3 -73 -3 0 -144 0 -145 -150 0 -150 0 0 -75 0 -75 -75 0 -75
0 0 -375 0 -375 75 0 75 0 0 -75 0 -75 1195 0 1195 0 0 75 0 75 75 0 75 0 0
375 0 375 -75 0 -75 0 0 75 0 75 -150 0 -150 0 0 145 0 145 -75 0 -75 0 0 75
0 75 -75 0 -75 0 0 75 0 75 -75 0 -75 0 0 150 0 150 -75 0 -75 0 0 150 0 150
-75 0 -75 0 0 -75z"/>
<path d="M2960 2230 l0 -70 75 0 75 0 0 70 0 70 -75 0 -75 0 0 -70z"/>
</g>
</svg>
